<?xml version="1.0" encoding="utf-8"?>
<!-- Generator: Adobe Illustrator 24.1.0, SVG Export Plug-In . SVG Version: 6.00 Build 0)  -->
<svg version="1.1" id="Bold" xmlns="http://www.w3.org/2000/svg" xmlns:xlink="http://www.w3.org/1999/xlink" x="0px" y="0px"
	 viewBox="0 0 512 512" style="enable-background:new 0 0 512 512;" xml:space="preserve">
<style type="text/css">
	.st0{fill:#FFFFFF;}
</style>
<polygon points="301.4,121.2 300.7,121.5 300.9,121.2 "/>
<path class="st0" d="M447.1,120.5C390.2,78.8,337,77,326.9,76.9l-6.4,6.3c72.7,20.7,107.9,53.1,107.9,53.1
	c-105.5-52-219.5-54.9-323.9-13.9c-16.4,7-25.8,11.6-25.8,11.6S113.9,99.4,191.4,81l-4.7-4.7c0,0-58.7-2.2-122,43.9h0
	c0,0-63.3,108.6-63.3,242.6c0,0,35.1,60.1,131.4,62.4c0,0,14.1-18.4,28.3-34.6C106.8,374.4,85.8,342,85.8,342l18.1,9.2
	c52.9,21.5,108.8,48.5,208.5,32.3c21-4.7,42.1-9.2,63.2-18.5c13.7-6.9,30.5-13.8,49-25.5c0,0-21.1,32.3-77.4,48.5
	c11.6,16.1,27.9,34.6,27.9,34.6c96.3-2.1,133.7-62.2,135.8-59.6C510.9,229.3,447.1,120.5,447.1,120.5z M174.9,321.3
	c-24.6,0-44.6-20.7-44.6-46.1c0-25.6,20-46.2,44.6-46.2l0.1-0.1c24.6,0,44.4,20.7,44.4,46.1C219.5,300.5,199.5,321.3,174.9,321.3z
	 M334.5,321.3c-24.6,0-44.6-20.7-44.6-46.1c0.1-25.6,20.1-46.2,44.6-46.2v-0.1c24.7,0,44.6,20.7,44.6,46.1
	C379.1,300.5,359.1,321.3,334.5,321.3z"/>
</svg>
