<?xml version="1.0" encoding="utf-8"?>
<!-- Generator: Adobe Illustrator 24.1.0, SVG Export Plug-In . SVG Version: 6.00 Build 0)  -->
<svg version="1.1" id="Layer_1" xmlns="http://www.w3.org/2000/svg" xmlns:xlink="http://www.w3.org/1999/xlink" x="0px" y="0px"
	 viewBox="0 0 512 512" style="enable-background:new 0 0 512 512;" xml:space="preserve">
<style type="text/css">
	.st0{fill:#FFFFFF;}
</style>
<path class="st0" d="M471.1,101L512,61.9v-8.6H370.5L269.6,304.4L154.9,53.3H6.5v8.6l47.7,57.5c4.7,4.2,7.1,10.5,6.5,16.7v225.8
	c1.5,8.1-1.2,16.5-6.9,22.4L0,449.4v8.4h152.4v-8.6l-53.8-65c-5.8-5.9-8.6-14.1-7.4-22.4V166.5l133.8,291.4h15.6l115.1-291.4v232.1
	c0,6.1,0,7.4-4,11.4l-41.4,40v8.6h200.8v-8.6l-39.9-39.1c-3.5-2.6-5.3-7.1-4.6-11.4V112.4C465.9,108,467.6,103.6,471.1,101
	L471.1,101z"/>
</svg>
